HIERARCHY
ROOT Hips
{
    OFFSET 0.000000 0.000000 0.000000
    CHANNELS 6 Xposition Yposition Zposition Zrotation Xrotation Yrotation
    JOINT Spine
    {
        OFFSET -0.000000 7.305680 0.000000
        CHANNELS 3 Zrotation Xrotation Yrotation
        JOINT Spine1
        {
            OFFSET -0.000000 20.356600 0.000000
            CHANNELS 3 Zrotation Xrotation Yrotation
            JOINT Neck
            {
                OFFSET -0.000000 22.138500 0.000000
                CHANNELS 3 Zrotation Xrotation Yrotation
                JOINT Head
                {
                    OFFSET -0.000000 13.809501 1.781870
                    CHANNELS 3 Zrotation Xrotation Yrotation
                    End Site
                    {
                        OFFSET -0.000000 17.818779 0.000000
                    }
                }
            }
            JOINT LeftShoulder
            {
                OFFSET 3.599130 17.990000 0.023591
                CHANNELS 3 Zrotation Xrotation Yrotation
                JOINT LeftArm
                {
                    OFFSET 12.560999 0.000000 0.000000
                    CHANNELS 3 Zrotation Xrotation Yrotation
                    JOINT LeftForeArm
                    {
                        OFFSET 22.903299 0.000000 0.000000
                        CHANNELS 3 Zrotation Xrotation Yrotation
                        JOINT LeftHand
                        {
                            OFFSET 21.865299 0.000000 0.000000
                            CHANNELS 3 Zrotation Xrotation Yrotation
                            JOINT LeftHandThumb1
                            {
                                OFFSET 1.853710 -2.106480 2.949080
                                CHANNELS 3 Zrotation Xrotation Yrotation
                                JOINT LeftHandThumb2
                                {
                                    OFFSET 2.049150 0.000000 1.336400
                                    CHANNELS 3 Zrotation Xrotation Yrotation
                                    JOINT LeftHandThumb3
                                    {
                                        OFFSET 2.672810 0.000000 0.000000
                                        CHANNELS 3 Zrotation Xrotation Yrotation
                                        End Site
                                        {
                                            OFFSET 2.381310 0.000000 0.000000
                                        }
                                    }
                                }
                            }
                            JOINT LeftHandIndex1
                            {
                                OFFSET 7.583340 0.000000 2.949080
                                CHANNELS 3 Zrotation Xrotation Yrotation
                                JOINT LeftHandIndex2
                                {
                                    OFFSET 4.454680 0.000000 0.000000
                                    CHANNELS 3 Zrotation Xrotation Yrotation
                                    JOINT LeftHandIndex3
                                    {
                                        OFFSET 2.227340 0.000000 0.000000
                                        CHANNELS 3 Zrotation Xrotation Yrotation
                                        End Site
                                        {
                                            OFFSET 1.984424 0.000000 0.000000
                                        }
                                    }
                                }
                            }
                            JOINT LeftHandMiddle1
                            {
                                OFFSET 7.583340 0.000000 0.977409
                                CHANNELS 3 Zrotation Xrotation Yrotation
                                JOINT LeftHandMiddle2
                                {
                                    OFFSET 4.900150 0.000000 0.000000
                                    CHANNELS 3 Zrotation Xrotation Yrotation
                                    JOINT LeftHandMiddle3
                                    {
                                        OFFSET 2.672810 0.000000 0.000000
                                        CHANNELS 3 Zrotation Xrotation Yrotation
                                        End Site
                                        {
                                            OFFSET 2.381310 0.000000 0.000000
                                        }
                                    }
                                }
                            }
                            JOINT LeftHandRing1
                            {
                                OFFSET 7.162050 0.000000 -0.977409
                                CHANNELS 3 Zrotation Xrotation Yrotation
                                JOINT LeftHandRing2
                                {
                                    OFFSET 4.454680 0.000000 0.000000
                                    CHANNELS 3 Zrotation Xrotation Yrotation
                                    JOINT LeftHandRing3
                                    {
                                        OFFSET 2.227340 0.000000 0.000000
                                        CHANNELS 3 Zrotation Xrotation Yrotation
                                        End Site
                                        {
                                            OFFSET 1.984424 0.000000 0.000000
                                        }
                                    }
                                }
                            }
                            JOINT LeftHandPinky1
                            {
                                OFFSET 6.740750 0.000000 -2.949080
                                CHANNELS 3 Zrotation Xrotation Yrotation
                                JOINT LeftHandPinky2
                                {
                                    OFFSET 3.563750 0.000000 0.000000
                                    CHANNELS 3 Zrotation Xrotation Yrotation
                                    JOINT LeftHandPinky3
                                    {
                                        OFFSET 1.781870 0.000000 0.000000
                                        CHANNELS 3 Zrotation Xrotation Yrotation
                                        End Site
                                        {
                                            OFFSET 1.587538 0.000000 0.000000
                                        }
                                    }
                                }
                            }
                        }
                    }
                }
            }
            JOINT RightShoulder
            {
                OFFSET -3.506990 17.990000 0.023591
                CHANNELS 3 Zrotation Xrotation Yrotation
                JOINT RightArm
                {
                    OFFSET -12.560999 0.000000 0.000000
                    CHANNELS 3 Zrotation Xrotation Yrotation
                    JOINT RightForeArm
                    {
                        OFFSET -22.903299 0.000000 0.000000
                        CHANNELS 3 Zrotation Xrotation Yrotation
                        JOINT RightHand
                        {
                            OFFSET -21.865299 0.000000 0.000000
                            CHANNELS 3 Zrotation Xrotation Yrotation
                            JOINT RightHandThumb1
                            {
                                OFFSET -1.853710 -2.106480 2.949080
                                CHANNELS 3 Zrotation Xrotation Yrotation
                                JOINT RightHandThumb2
                                {
                                    OFFSET -2.049150 0.000000 1.336400
                                    CHANNELS 3 Zrotation Xrotation Yrotation
                                    JOINT RightHandThumb3
                                    {
                                        OFFSET -2.672810 0.000000 0.000000
                                        CHANNELS 3 Zrotation Xrotation Yrotation
                                        End Site
                                        {
                                            OFFSET -2.381310 0.000000 0.000000
                                        }
                                    }
                                }
                            }
                            JOINT RightHandIndex1
                            {
                                OFFSET -7.583340 0.000000 2.949080
                                CHANNELS 3 Zrotation Xrotation Yrotation
                                JOINT RightHandIndex2
                                {
                                    OFFSET -4.454680 0.000000 0.000000
                                    CHANNELS 3 Zrotation Xrotation Yrotation
                                    JOINT RightHandIndex3
                                    {
                                        OFFSET -2.227340 0.000000 0.000000
                                        CHANNELS 3 Zrotation Xrotation Yrotation
                                        End Site
                                        {
                                            OFFSET -1.984424 0.000000 0.000000
                                        }
                                    }
                                }
                            }
                            JOINT RightHandMiddle1
                            {
                                OFFSET -7.583340 0.000000 0.977409
                                CHANNELS 3 Zrotation Xrotation Yrotation
                                JOINT RightHandMiddle2
                                {
                                    OFFSET -4.900150 0.000000 0.000000
                                    CHANNELS 3 Zrotation Xrotation Yrotation
                                    JOINT RightHandMiddle3
                                    {
                                        OFFSET -2.672810 0.000000 0.000000
                                        CHANNELS 3 Zrotation Xrotation Yrotation
                                        End Site
                                        {
                                            OFFSET -2.381310 0.000000 0.000000
                                        }
                                    }
                                }
                            }
                            JOINT RightHandRing1
                            {
                                OFFSET -7.162050 0.000000 -0.977409
                                CHANNELS 3 Zrotation Xrotation Yrotation
                                JOINT RightHandRing2
                                {
                                    OFFSET -4.454680 0.000000 0.000000
                                    CHANNELS 3 Zrotation Xrotation Yrotation
                                    JOINT RightHandRing3
                                    {
                                        OFFSET -2.227340 0.000000 0.000000
                                        CHANNELS 3 Zrotation Xrotation Yrotation
                                        End Site
                                        {
                                            OFFSET -1.984424 0.000000 0.000000
                                        }
                                    }
                                }
                            }
                            JOINT RightHandPinky1
                            {
                                OFFSET -6.740750 0.000000 -2.949080
                                CHANNELS 3 Zrotation Xrotation Yrotation
                                JOINT RightHandPinky2
                                {
                                    OFFSET -3.563750 0.000000 0.000000
                                    CHANNELS 3 Zrotation Xrotation Yrotation
                                    JOINT RightHandPinky3
                                    {
                                        OFFSET -1.781870 0.000000 0.000000
                                        CHANNELS 3 Zrotation Xrotation Yrotation
                                        End Site
                                        {
                                            OFFSET -1.587538 0.000000 0.000000
                                        }
                                    }
                                }
                            }
                        }
                    }
                }
            }
        }
    }
    JOINT LeftUpLeg
    {
        OFFSET 8.909360 0.000000 0.000000
        CHANNELS 3 Zrotation Xrotation Yrotation
        JOINT LeftLeg
        {
            OFFSET -0.000000 -38.765602 0.000000
            CHANNELS 3 Zrotation Xrotation Yrotation
            JOINT LeftFoot
            {
                OFFSET -0.000000 -35.245003 0.000000
                CHANNELS 3 Zrotation Xrotation Yrotation
                JOINT LeftToeBase
                {
                    OFFSET -0.000000 -5.791090 13.364000
                    CHANNELS 3 Zrotation Xrotation Yrotation
                    End Site
                    {
                        OFFSET -0.000000 0.000000 3.563756
                    }
                }
            }
        }
    }
    JOINT RightUpLeg
    {
        OFFSET -8.909360 0.000000 0.000000
        CHANNELS 3 Zrotation Xrotation Yrotation
        JOINT RightLeg
        {
            OFFSET -0.000000 -38.765602 0.000000
            CHANNELS 3 Zrotation Xrotation Yrotation
            JOINT RightFoot
            {
                OFFSET -0.000000 -35.245003 0.000000
                CHANNELS 3 Zrotation Xrotation Yrotation
                JOINT RightToeBase
                {
                    OFFSET -0.000000 -5.791090 13.364000
                    CHANNELS 3 Zrotation Xrotation Yrotation
                    End Site
                    {
                        OFFSET -0.000000 0.000000 3.563756
                    }
                }
            }
        }
    }
}
MOTION
Frames:    4
Frame Time:    0.033333
-5.235981    79.312698    119.041321    11.385114    -3.484762    -5.062071    15.496388    0.656143    7.174407    -43.896393    0.376791    2.593706    11.061012    20.779730    0.869351    16.386650    -14.253213    4.337202    -1.588855    1.821962    10.045876    -73.944862    14.942422    1.042677    33.321892    -33.783600    -89.366066    34.587318    -37.422291    30.046894    3.563428    4.286876    9.406455    -0.000000    0.000000    8.761591    -0.000000    0.000000    17.523182    -18.389612    3.187846    -9.495963    -37.308914    0.000000    0.000000    -18.654457    0.000000    0.000000    -41.438469    -9.296146    -0.327620    -61.296963    0.000000    0.000000    -38.898491    0.000000    0.000000    -63.871449    -24.336868    3.469084    -85.285034    0.000000    0.000000    -59.142525    0.000000    0.000000    -89.999992    -39.999996    0.000000    -110.000000    0.000000    0.000000    -80.000000    0.000000    0.000000    -23.888210    2.557001    -0.894212    96.059059    69.624702    4.316094    -87.542786    -29.122669    43.974594    20.754816    -14.317129    17.897562    3.908962    -2.747077    7.210610    0.000000    0.000000    0.000000    0.000000    0.000000    0.000000    27.079477    2.913761    5.677906    54.448002    0.000000    -0.000000    27.224001    0.000000    -0.000000    39.026684    0.522469    2.128777    72.780167    0.000000    -0.000000    39.033100    0.000000    -0.000000    50.814751    -2.547261    -0.851674    91.112335    0.000000    -0.000000    50.842182    0.000000    -0.000000    62.833130    -6.274779    -3.210417    110.000000    0.000000    -0.000000    63.009136    0.000000    -0.000000    1.795780    1.424758    10.530448    1.637836    9.070551    22.882595    -18.348557    2.229829    -28.639416    0.296190    -3.256006    -1.203163    -27.651180    -10.566670    10.925146    -0.193445    26.205046    -9.178043    24.445927    -12.735922    22.063725    -0.398729    -1.249808    0.505401    
-5.325050    79.306976    118.674889    11.565264    -4.020325    -5.513062    15.368714    0.697086    7.142113    -44.869705    1.419981    3.020693    11.352777    20.188126    1.291697    17.152037    -14.757811    4.884962    -1.714740    1.277152    9.056269    -71.922096    14.764423    0.701046    32.871666    -33.309555    -86.188004    34.459183    -37.174873    31.643400    3.376149    4.234375    9.133265    -0.000000    0.000000    8.544767    -0.000000    0.000000    17.089533    -18.853346    3.427980    -9.932289    -38.302608    0.000000    0.000000    -19.151302    0.000000    0.000000    -41.810760    -9.090634    -0.640307    -61.962734    0.000000    0.000000    -39.231373    0.000000    0.000000    -64.093826    -24.203655    3.293062    -85.622894    0.000000    0.000000    -59.311440    0.000000    0.000000    -89.999992    -39.999996    0.000000    -110.000000    0.000000    0.000000    -80.000000    0.000000    0.000000    -24.567074    1.322132    0.353139    91.195747    72.063469    11.124323    -86.868187    -25.932827    41.998409    21.725706    -12.221875    16.102991    4.039030    -3.073695    7.845494    0.000000    0.000000    0.000000    0.000000    0.000000    0.000000    26.994932    3.149400    6.155491    54.328625    0.000000    -0.000000    27.164312    0.000000    -0.000000    39.180931    0.767624    2.484663    72.700172    0.000000    -0.000000    39.190830    0.000000    -0.000000    51.199272    -2.330385    -0.603474    91.071747    0.000000    -0.000000    51.217339    0.000000    -0.000000    63.445255    -6.119086    -3.049473    110.000000    0.000000    -0.000000    63.608292    0.000000    -0.000000    1.583290    1.916769    10.560456    1.648661    8.725008    22.950289    -18.453606    2.427662    -28.229309    0.289359    -3.251461    -1.184456    -27.589266    -10.754277    11.612762    -0.327655    26.472015    -8.870997    24.354450    -12.758085    21.773655    -0.392754    -1.292423    0.491681    
-5.425615    79.330093    118.284904    11.653981    -4.489670    -5.833422    15.174269    0.658033    6.823705    -45.764881    2.462025    3.366681    11.930287    19.287207    1.726458    17.694717    -14.900527    5.446486    -1.649543    0.712709    7.842521    -69.993309    14.909458    0.365346    32.577465    -32.854042    -82.629158    35.167446    -36.787300    33.234352    3.024127    4.294066    8.817068    -0.000000    0.000000    8.347281    -0.000000    0.000000    16.694565    -19.716413    3.772684    -10.403719    -40.120007    0.000000    0.000000    -20.060003    0.000000    0.000000    -42.467365    -8.823947    -0.999369    -63.180389    0.000000    0.000000    -39.840206    0.000000    0.000000    -64.472855    -24.036522    3.075767    -86.240799    0.000000    0.000000    -59.620403    0.000000    0.000000    -89.999992    -39.999996    0.000000    -110.000000    0.000000    0.000000    -80.000000    0.000000    0.000000    -24.752327    -0.154263    1.643453    85.033447    73.998154    19.040461    -86.086311    -22.267666    39.972618    22.608372    -11.059322    14.642556    3.953523    -3.512922    8.486251    0.000000    0.000000    0.000000    0.000000    0.000000    0.000000    26.977892    3.401390    6.648057    54.351006    0.000000    -0.000000    27.175503    0.000000    -0.000000    39.324417    1.037545    2.856009    72.715164    0.000000    -0.000000    39.339622    0.000000    -0.000000    51.494942    -2.076960    -0.345082    91.079330    0.000000    -0.000000    51.503731    0.000000    -0.000000    63.887100    -5.913384    -2.890989    110.000000    0.000000    -0.000000    64.036453    0.000000    -0.000000    1.472455    2.348030    10.563881    1.685039    8.335204    22.934252    -18.705429    2.609743    -27.832344    0.286345    -3.265616    -1.178699    -27.476925    -10.837837    12.213041    -0.380641    26.537279    -8.848493    24.249393    -12.620189    21.626663    -0.384759    -1.324182    0.475817    
-5.520665    79.368607    117.882523    11.695761    -4.950034    -6.056372    14.858573    0.611726    6.259021    -46.712257    3.496990    3.648020    13.240273    18.036453    2.096843    17.769583    -14.595336    6.038040    -1.248868    -0.117544    6.717482    -68.369728    15.328464    0.006967    32.028809    -32.169460    -79.042755    36.643410    -36.213432    34.870831    2.748877    4.371979    8.607798    -0.000000    0.000000    8.241624    -0.000000    0.000000    16.483248    -20.479309    4.065866    -10.749572    -41.723999    0.000000    0.000000    -20.862003    0.000000    0.000000    -43.040916    -8.606354    -1.269441    -64.255081    0.000000    0.000000    -40.377544    0.000000    0.000000    -64.801147    -23.903122    2.907301    -86.786156    0.000000    0.000000    -59.893089    0.000000    0.000000    -89.999992    -39.999996    0.000000    -110.000000    0.000000    0.000000    -80.000000    0.000000    0.000000    -24.240988    -1.888571    3.007895    77.247086    75.648483    28.001959    -85.813293    -17.546261    37.518623    23.086885    -11.778799    14.063113    3.967139    -3.794609    8.950472    0.000000    0.000000    0.000000    0.000000    0.000000    0.000000    26.918928    3.621603    7.091545    54.286831    0.000000    -0.000000    27.143415    0.000000    -0.000000    39.357704    1.279694    3.187514    72.672180    0.000000    -0.000000    39.378967    0.000000    -0.000000    51.613186    -1.842139    -0.122037    91.057510    0.000000    -0.000000    51.614532    0.000000    -0.000000    64.082634    -5.713466    -2.769692    110.000000    0.000000    -0.000000    64.220863    0.000000    -0.000000    1.424382    2.777596    10.685992    1.746950    7.951610    22.861723    -19.260553    2.689499    -27.637136    0.286241    -3.333848    -1.188981    -27.369209    -10.813469    12.760999    -0.362193    26.470457    -8.949603    24.130068    -12.443819    21.523794    -0.372448    -1.330557    0.455606    
